<svg width="40" height="40" viewBox="0 0 40 40" fill="none" xmlns="http://www.w3.org/2000/svg">
<path fill-rule="evenodd" clip-rule="evenodd" d="M11.6663 6.50798C11.6663 4.75469 13.0877 3.33337 14.8409 3.33337H30.714C32.4672 3.33337 33.8886 4.75469 33.8886 6.50798V33.4921C33.8886 33.6265 33.8802 33.7589 33.864 33.8889H35.1512C35.988 33.8889 36.6663 34.5108 36.6663 35.2778C36.6663 36.0449 35.988 36.6667 35.1512 36.6667L30.714 36.6667H14.8409H11.6663H8.88856L4.84816 36.6667C4.01136 36.6667 3.33301 36.0449 3.33301 35.2778C3.33301 34.5108 4.01136 33.8889 4.84816 33.8889H6.14919C6.12393 33.7083 6.11079 33.5227 6.11079 33.3334V23.3334C6.11079 21.4924 7.35444 20 8.88856 20H11.6663V6.50798ZM11.6663 31.1112V33.3334H8.88856V31.1112H11.6663ZM11.6663 23.3334V25.5556H8.88856V23.3334H11.6663ZM30.714 6.50798H14.8409V33.4921H30.714V6.50798ZM20.9256 8.88893H17.2219V12H20.9256V8.88893ZM28.333 8.88893H24.6293V12H28.333V8.88893ZM20.9256 14.3334H17.2219V17.4445H20.9256V14.3334ZM28.333 14.3334H24.6293V17.4445H28.333V14.3334ZM28.333 19.7778H24.6293V22.8889H28.333V19.7778ZM28.333 25.2223H24.6293V28.3334H28.333V25.2223Z" fill="#51FE28"/>
</svg>
