<svg width="40" height="40" viewBox="0 0 40 40" fill="none" xmlns="http://www.w3.org/2000/svg">
<path d="M32.8795 20.7366C32.9836 18.9807 32.7381 17.2954 32.1429 15.6808C31.5476 14.0662 30.7068 12.66 29.6205 11.4621C28.5342 10.2641 27.2173 9.28943 25.6696 8.53795C24.122 7.78646 22.4777 7.35863 20.7366 7.25446C19.0104 7.1503 17.3326 7.38839 15.7031 7.96875C14.0737 8.54911 12.6451 9.37128 11.4174 10.4353C10.1897 11.4993 9.18527 12.8013 8.40402 14.3415C7.62277 15.8817 7.18006 17.5223 7.07589 19.2634C6.97173 21.0193 7.21726 22.7046 7.8125 24.3192C8.40774 25.9338 9.24851 27.34 10.3348 28.5379C11.4211 29.7359 12.7418 30.7106 14.2969 31.4621C15.8519 32.2135 17.5 32.6414 19.2411 32.7455C21.5476 32.8795 23.7277 32.4405 25.7812 31.4286C27.8348 30.4167 29.5015 28.9621 30.7812 27.0647C32.061 25.1674 32.7604 23.058 32.8795 20.7366ZM40 0L32.2098 7.76786C33.9955 9.50893 35.3385 11.5327 36.2388 13.8393C37.1391 16.1458 37.5149 18.5342 37.3661 21.0045C37.2024 23.7277 36.4435 26.25 35.0893 28.5714C33.7351 30.8929 31.942 32.7939 29.7098 34.2746C27.4777 35.7552 25.0074 36.6815 22.2991 37.0536L0 40L7.74554 32.2545C5.95982 30.5283 4.61682 28.5082 3.71652 26.1942C2.81622 23.8802 2.44048 21.4881 2.58929 19.0179C2.75298 16.2798 3.5119 13.75 4.86607 11.4286C6.22024 9.10714 8.01711 7.2061 10.2567 5.72545C12.4963 4.24479 14.9702 3.31845 17.6786 2.94643C20.1637 2.61905 23.8839 2.12798 28.8393 1.47321C33.7946 0.818452 37.5149 0.327381 40 0Z" fill="#51FE28"/>
<g clip-path="url(#clip0_240_1082)">
<path d="M18.7759 14.6938L13.8779 21.2245H18.7759L15.5106 27.7551L26.9392 19.5918H20.4085L25.3065 14.6938H18.7759Z" fill="#51FE28"/>
</g>
<defs>
<clipPath id="clip0_240_1082">
<rect width="13.0612" height="13.0612" fill="white" transform="translate(13.8779 14.6938)"/>
</clipPath>
</defs>
</svg>
