<svg width="40" height="40" viewBox="0 0 40 40" fill="none" xmlns="http://www.w3.org/2000/svg">
<g clip-path="url(#clip0_229_439)">
<path d="M33.3443 6.5303C33.0332 5.8467 32.1443 5.81936 31.7721 6.46467C30.0499 9.41233 26.9666 11.2498 23.4443 11.2498H18.9999C13.111 11.2498 8.33322 15.953 8.33322 21.7498C8.33322 22.1326 8.37767 22.499 8.41656 22.8709C11.961 20.3717 17.0777 18.2498 24.3332 18.2498C24.8221 18.2498 25.2221 18.6436 25.2221 19.1248C25.2221 19.6061 24.8221 19.9998 24.3332 19.9998C10.3666 19.9998 4.44433 28.4272 3.13322 31.5936C2.76656 32.485 3.19989 33.5022 4.10545 33.8686C5.01656 34.2405 6.04989 33.8084 6.42767 32.9225C6.511 32.7256 7.58878 30.303 10.4221 27.9678C12.2221 30.3686 15.6443 32.66 20.1388 32.1897C28.861 31.5662 34.9999 23.8662 34.9999 14.4381C34.9999 11.6928 34.3999 8.84905 33.3443 6.5303Z" fill="#51FE28"/>
</g>
<defs>
<clipPath id="clip0_229_439">
<rect width="32" height="28" fill="white" transform="translate(3 6)"/>
</clipPath>
</defs>
</svg>
