<svg width="40" height="40" viewBox="0 0 40 40" fill="none" xmlns="http://www.w3.org/2000/svg">
<path d="M12.385 5L5 13.44V35H35V13.44L27.615 5H12.385ZM11.8175 2.5H28.1825C28.3604 2.49987 28.5363 2.53772 28.6984 2.61101C28.8605 2.6843 29.0051 2.79135 29.1225 2.925L37.19 12.1475C37.3895 12.3751 37.4996 12.6673 37.5 12.97V36.25C37.5 36.5815 37.3683 36.8995 37.1339 37.1339C36.8995 37.3683 36.5815 37.5 36.25 37.5H3.75C3.41848 37.5 3.10054 37.3683 2.86612 37.1339C2.6317 36.8995 2.5 36.5815 2.5 36.25V12.97C2.49975 12.6665 2.60993 12.3732 2.81 12.145L10.875 2.93C10.9922 2.79512 11.137 2.68694 11.2996 2.61277C11.4622 2.53859 11.6388 2.50014 11.8175 2.5Z" fill="#51FE28"/>
<path d="M2.5 12.5H37.5V15H2.5V12.5Z" fill="#51FE28"/>
<path d="M17.5 12.8075V25H22.5V12.8075L20.55 5H19.45L17.5 12.8075ZM17.5 2.5H22.5L25 12.5V26.25C25 26.5815 24.8683 26.8995 24.6339 27.1339C24.3995 27.3683 24.0815 27.5 23.75 27.5H16.25C15.9185 27.5 15.6005 27.3683 15.3661 27.1339C15.1317 26.8995 15 26.5815 15 26.25V12.5L17.5 2.5Z" fill="#51FE28"/>
</svg>
