<svg width="40" height="40" viewBox="0 0 40 40" fill="none" xmlns="http://www.w3.org/2000/svg">
<path d="M36.7857 32.3927L36.7949 32.3875L33.8809 27.3407H35.0277V27.3355C35.2669 27.3355 35.4609 27.142 35.4609 26.9028C35.4609 26.8288 35.4373 26.7623 35.4049 26.7015L35.4125 26.6971L32.7177 22.0295H33.3733V22.0259C33.4552 22.0259 33.5338 21.9934 33.5918 21.9355C33.6498 21.8776 33.6824 21.7991 33.6825 21.7171C33.6813 21.6667 33.6676 21.6173 33.6425 21.5735L33.6477 21.5703L29.7269 14.7787L29.7229 14.7811C29.6802 14.6914 29.613 14.6154 29.5291 14.5621C29.4452 14.5087 29.3479 14.4801 29.2485 14.4795C29.0389 14.4795 28.8613 14.6039 28.7745 14.7803L28.7725 14.7791L24.8517 21.5703L24.8525 21.5707C24.8261 21.6151 24.8117 21.6655 24.8105 21.7171C24.8105 21.8875 24.9489 22.0259 25.1197 22.0259V22.0295H25.7841L23.0893 26.6971L23.0905 26.6975C23.0537 26.7598 23.0335 26.8305 23.0317 26.9028C23.0317 27.142 23.2257 27.3355 23.4649 27.3355V27.3407H24.6225L23.7825 28.7959L20.4229 22.9767H22.0413V22.9695C22.3789 22.9695 22.6525 22.6955 22.6525 22.3583C22.6525 22.2543 22.6241 22.1575 22.5781 22.0715L22.5841 22.0679L18.7813 15.4811H19.7065V15.4763C19.7638 15.4764 19.8206 15.4651 19.8736 15.4432C19.9266 15.4213 19.9748 15.3891 20.0153 15.3485C20.0559 15.3079 20.088 15.2598 20.1099 15.2067C20.1318 15.1537 20.143 15.0969 20.1429 15.0395C20.1429 14.9651 20.1193 14.8983 20.0865 14.8371L20.0941 14.8327L14.5605 5.24995L14.5585 5.25115C14.4974 5.12439 14.4019 5.01739 14.2828 4.94241C14.1638 4.86742 14.026 4.82748 13.8853 4.82715C13.5821 4.82715 13.3221 5.00795 13.2037 5.26715L7.68088 14.8327L7.68208 14.8335C7.64497 14.8961 7.62458 14.9672 7.62288 15.0399C7.62278 15.0973 7.63398 15.1541 7.65584 15.207C7.67771 15.26 7.70981 15.3082 7.7503 15.3488C7.7908 15.3893 7.8389 15.4215 7.89185 15.4435C7.9448 15.4654 8.00156 15.4767 8.05888 15.4767V15.4815H8.99688L5.23888 21.9903C5.15747 22.0958 5.11305 22.2251 5.11248 22.3583C5.11248 22.6959 5.38648 22.9695 5.72368 22.9695V22.9767H7.35728L3.30128 30.0028C3.20528 30.1283 3.14648 30.2836 3.14648 30.4539C3.14648 30.8667 3.48168 31.2019 3.89488 31.2019V31.2103H11.8065V34.5823C11.8065 34.9083 12.0709 35.1731 12.3969 35.1731H15.3501C15.6761 35.1731 15.9409 34.9087 15.9409 34.5823V31.2103H22.3889L21.7093 32.3875L21.7105 32.3883C21.6689 32.4639 21.6385 32.5467 21.6385 32.6395C21.6385 32.9323 21.8757 33.1695 22.1685 33.1695V33.1756H27.7749V34.7519C27.7749 34.9831 27.9625 35.1703 28.1933 35.1703H30.2861C30.5173 35.1703 30.7045 34.9831 30.7045 34.7519V33.1756H36.3245V33.1695C36.6173 33.1695 36.8549 32.9323 36.8549 32.6395C36.8529 32.5528 36.8291 32.4679 36.7857 32.3927Z" fill="url(#paint0_radial_57_571)"/>
<defs>
<radialGradient id="paint0_radial_57_571" cx="0" cy="0" r="1" gradientUnits="userSpaceOnUse" gradientTransform="translate(25.9891 -3.13695) rotate(33.1262) scale(22.1696 30.9931)">
<stop stop-color="white"/>
<stop offset="0.416667" stop-color="#E5E500"/>
<stop offset="1" stop-color="#8FEA47"/>
</radialGradient>
</defs>
</svg>
