<svg width="40" height="40" viewBox="0 0 40 40" fill="none" xmlns="http://www.w3.org/2000/svg">
<path d="M9.402 16.068V21.78H10.302V16.956H18.138V21.72H19.074V16.068H9.402ZM9.882 20.148V21.024H18.678V20.148H9.882ZM13.746 13.92V24.948H14.682V13.92H13.746ZM28.438 16.416C27.094 20.532 24.49 22.884 20.206 24.108C20.398 24.324 20.686 24.756 20.782 24.984C25.15 23.568 27.874 21.096 29.386 16.692L28.438 16.416ZM22.99 16.476L22.102 16.752C23.578 20.952 26.218 23.808 30.67 24.972C30.814 24.708 31.102 24.3 31.318 24.084C26.986 23.076 24.286 20.316 22.99 16.476ZM20.35 15.96V16.848H31.198V15.96H20.35ZM25.27 13.92V16.5H26.194V13.92H25.27Z" fill="black" fill-opacity="0.87"/>
</svg>
