<svg width="40" height="40" viewBox="0 0 40 40" fill="none" xmlns="http://www.w3.org/2000/svg">
<circle cx="20" cy="20" r="20" transform="rotate(180 20 20)" fill="#51FE28"/>
<path d="M22.6726 27.9999C22.5018 28.0005 22.3331 27.9628 22.1788 27.8897C22.0245 27.8165 21.8886 27.7097 21.781 27.5771L16.26 20.7206C16.0919 20.5161 16 20.2597 16 19.995C16 19.7303 16.0919 19.4738 16.26 19.2693L21.9753 12.4128C22.1694 12.1795 22.4482 12.0327 22.7504 12.0048C23.0527 11.977 23.3536 12.0703 23.5871 12.2643C23.8205 12.4582 23.9673 12.737 23.9952 13.0391C24.023 13.3413 23.9297 13.6422 23.7357 13.8755L18.6262 20.0007L23.5642 26.1258C23.704 26.2936 23.7928 26.4978 23.8201 26.7144C23.8474 26.931 23.812 27.1509 23.7182 27.3481C23.6244 27.5452 23.4761 27.7114 23.2908 27.8269C23.1055 27.9424 22.891 28.0025 22.6726 27.9999Z" fill="#07451A"/>
</svg>
