<svg width="40" height="40" viewBox="0 0 40 40" fill="none" xmlns="http://www.w3.org/2000/svg">
<circle cx="20" cy="20" r="20" fill="#51FE28"/>
<path d="M17.3274 12.0001C17.4982 11.9995 17.6669 12.0372 17.8212 12.1103C17.9755 12.1835 18.1114 12.2903 18.219 12.4229L23.74 19.2794C23.9081 19.4839 24 19.7403 24 20.005C24 20.2697 23.9081 20.5262 23.74 20.7307L18.0247 27.5872C17.8306 27.8205 17.5518 27.9673 17.2496 27.9952C16.9473 28.023 16.6464 27.9297 16.4129 27.7357C16.1795 27.5418 16.0327 27.263 16.0048 26.9609C15.977 26.6587 16.0703 26.3578 16.2643 26.1245L21.3738 19.9993L16.4358 13.8742C16.296 13.7064 16.2072 13.5022 16.1799 13.2856C16.1526 13.069 16.188 12.8491 16.2818 12.6519C16.3756 12.4548 16.5239 12.2886 16.7092 12.1731C16.8945 12.0576 17.109 11.9975 17.3274 12.0001Z" fill="#07451A"/>
</svg>
