<svg width="40" height="40" viewBox="0 0 40 40" fill="none" xmlns="http://www.w3.org/2000/svg">
<path d="M20 5C20.3183 5 20.6235 5.12643 20.8485 5.35147C21.0736 5.57652 21.2 5.88174 21.2 6.2V8.6C21.2 8.91826 21.0736 9.22348 20.8485 9.44853C20.6235 9.67357 20.3183 9.8 20 9.8C19.6817 9.8 19.3765 9.67357 19.1515 9.44853C18.9264 9.22348 18.8 8.91826 18.8 8.6V6.2C18.8 5.88174 18.9264 5.57652 19.1515 5.35147C19.3765 5.12643 19.6817 5 20 5ZM20 29C22.1217 29 24.1566 28.1571 25.6569 26.6569C27.1571 25.1566 28 23.1217 28 21C28 18.8783 27.1571 16.8434 25.6569 15.3431C24.1566 13.8429 22.1217 13 20 13C17.8783 13 15.8434 13.8429 14.3431 15.3431C12.8429 16.8434 12 18.8783 12 21C12 23.1217 12.8429 25.1566 14.3431 26.6569C15.8434 28.1571 17.8783 29 20 29ZM20 26.6C19.2646 26.6 18.5364 26.4552 17.857 26.1737C17.1776 25.8923 16.5602 25.4798 16.0402 24.9598C15.5202 24.4398 15.1077 23.8224 14.8263 23.143C14.5448 22.4636 14.4 21.7354 14.4 21C14.4 20.2646 14.5448 19.5364 14.8263 18.857C15.1077 18.1776 15.5202 17.5602 16.0402 17.0402C16.5602 16.5202 17.1776 16.1077 17.857 15.8263C18.5364 15.5448 19.2646 15.4 20 15.4C21.4852 15.4 22.9096 15.99 23.9598 17.0402C25.01 18.0904 25.6 19.5148 25.6 21C25.6 22.4852 25.01 23.9096 23.9598 24.9598C22.9096 26.01 21.4852 26.6 20 26.6ZM34.8 22.2C35.1183 22.2 35.4235 22.0736 35.6485 21.8485C35.8736 21.6235 36 21.3183 36 21C36 20.6817 35.8736 20.3765 35.6485 20.1515C35.4235 19.9264 35.1183 19.8 34.8 19.8H32.4C32.0817 19.8 31.7765 19.9264 31.5515 20.1515C31.3264 20.3765 31.2 20.6817 31.2 21C31.2 21.3183 31.3264 21.6235 31.5515 21.8485C31.7765 22.0736 32.0817 22.2 32.4 22.2H34.8ZM20 32.2C20.3183 32.2 20.6235 32.3264 20.8485 32.5515C21.0736 32.7765 21.2 33.0817 21.2 33.4V35.8C21.2 36.1183 21.0736 36.4235 20.8485 36.6485C20.6235 36.8736 20.3183 37 20 37C19.6817 37 19.3765 36.8736 19.1515 36.6485C18.9264 36.4235 18.8 36.1183 18.8 35.8V33.4C18.8 33.0817 18.9264 32.7765 19.1515 32.5515C19.3765 32.3264 19.6817 32.2 20 32.2ZM7.6 22.2C7.91826 22.2 8.22348 22.0736 8.44853 21.8485C8.67357 21.6235 8.8 21.3183 8.8 21C8.8 20.6817 8.67357 20.3765 8.44853 20.1515C8.22348 19.9264 7.91826 19.8 7.6 19.8H5.2C4.88174 19.8 4.57652 19.9264 4.35147 20.1515C4.12643 20.3765 4 20.6817 4 21C4 21.3183 4.12643 21.6235 4.35147 21.8485C4.57652 22.0736 4.88174 22.2 5.2 22.2H7.6ZM7.552 8.552C7.777 8.32728 8.082 8.20106 8.4 8.20106C8.718 8.20106 9.023 8.32728 9.248 8.552L11.648 10.952C11.86 11.1795 11.9754 11.4804 11.9699 11.7912C11.9644 12.1021 11.8385 12.3987 11.6186 12.6186C11.3987 12.8385 11.1021 12.9644 10.7912 12.9699C10.4804 12.9754 10.1795 12.86 9.952 12.648L7.552 10.248C7.32728 10.023 7.20106 9.718 7.20106 9.4C7.20106 9.082 7.32728 8.777 7.552 8.552ZM9.248 33.448C9.13814 33.5659 9.00566 33.6605 8.85846 33.726C8.71126 33.7916 8.55236 33.8269 8.39124 33.8297C8.23011 33.8326 8.07006 33.803 7.92064 33.7426C7.77122 33.6822 7.63549 33.5924 7.52154 33.4785C7.40759 33.3645 7.31776 33.2288 7.2574 33.0794C7.19705 32.9299 7.16741 32.7699 7.17025 32.6088C7.1731 32.4476 7.20836 32.2887 7.27395 32.1415C7.33954 31.9943 7.4341 31.8619 7.552 31.752L9.952 29.352C10.0619 29.2341 10.1943 29.1395 10.3415 29.0739C10.4887 29.0084 10.6476 28.9731 10.8088 28.9703C10.9699 28.9674 11.1299 28.997 11.2794 29.0574C11.4288 29.1178 11.5645 29.2076 11.6785 29.3215C11.7924 29.4355 11.8822 29.5712 11.9426 29.7206C12.0029 29.8701 12.0326 30.0301 12.0297 30.1912C12.0269 30.3524 11.9916 30.5113 11.926 30.6585C11.8605 30.8057 11.7659 30.9381 11.648 31.048L9.248 33.448ZM32.448 8.552C32.223 8.32728 31.918 8.20106 31.6 8.20106C31.282 8.20106 30.977 8.32728 30.752 8.552L28.352 10.952C28.14 11.1795 28.0246 11.4804 28.0301 11.7912C28.0356 12.1021 28.1615 12.3987 28.3814 12.6186C28.6013 12.8385 28.8979 12.9644 29.2088 12.9699C29.5196 12.9754 29.8205 12.86 30.048 12.648L32.448 10.248C32.6727 10.023 32.7989 9.718 32.7989 9.4C32.7989 9.082 32.6727 8.777 32.448 8.552ZM30.752 33.448C30.8619 33.5659 30.9943 33.6605 31.1415 33.726C31.2887 33.7916 31.4476 33.8269 31.6088 33.8297C31.7699 33.8326 31.9299 33.803 32.0794 33.7426C32.2288 33.6822 32.3645 33.5924 32.4785 33.4785C32.5924 33.3645 32.6822 33.2288 32.7426 33.0794C32.803 32.9299 32.8326 32.7699 32.8297 32.6088C32.8269 32.4476 32.7916 32.2887 32.726 32.1415C32.6605 31.9943 32.5659 31.8619 32.448 31.752L30.048 29.352C29.9381 29.2341 29.8057 29.1395 29.6585 29.0739C29.5113 29.0084 29.3524 28.9731 29.1912 28.9703C29.0301 28.9674 28.8701 28.997 28.7206 29.0574C28.5712 29.1178 28.4355 29.2076 28.3215 29.3215C28.2076 29.4355 28.1178 29.5712 28.0574 29.7206C27.997 29.8701 27.9674 30.0301 27.9703 30.1912C27.9731 30.3524 28.0084 30.5113 28.0739 30.6585C28.1395 30.8057 28.2341 30.9381 28.352 31.048L30.752 33.448Z" fill="url(#paint0_radial_54_505)"/>
<defs>
<radialGradient id="paint0_radial_54_505" cx="0" cy="0" r="1" gradientUnits="userSpaceOnUse" gradientTransform="translate(25.6849 -3.39817) rotate(35.9363) scale(21.7686 31.5975)">
<stop stop-color="white"/>
<stop offset="0.416667" stop-color="#E5E500"/>
<stop offset="1" stop-color="#8FEA47"/>
</radialGradient>
</defs>
</svg>
