<svg width="128" height="40" viewBox="0 0 128 40" fill="none" xmlns="http://www.w3.org/2000/svg">
<path fill-rule="evenodd" clip-rule="evenodd" d="M32.6709 24.4437C31.0025 27.5394 27.9779 29.3699 24.7439 29.8404C17.3704 30.9118 8.28506 24.9577 7.09107 17.7661C6.4071 24.2303 9.60556 30.7656 15.6822 34.0391C20.5333 36.6525 26.6219 37.0834 31.3425 33.9522C33.2362 32.6949 35.1142 31.1293 36.3121 29.1683C36.7431 28.4646 37.0554 27.571 36.4466 26.8792C35.9484 26.3138 35.1102 26.0845 34.4144 25.8789C33.9083 25.7287 32.9674 25.6219 32.6076 25.1831C32.3704 24.8905 32.5167 24.7324 32.6709 24.4437Z" fill="url(#paint0_radial_168_740)"/>
<path fill-rule="evenodd" clip-rule="evenodd" d="M7.09131 17.7661C7.83854 26.0054 16.9476 32.0149 24.7441 29.8404C17.3825 30.9949 8.2853 24.9577 7.09131 17.7661Z" fill="url(#paint1_radial_168_740)"/>
<path fill-rule="evenodd" clip-rule="evenodd" d="M7.30469 19.1738C8.78729 26.1915 16.3308 31.2086 23.3168 30.149C16.4929 30.8844 8.96915 25.8277 7.30469 19.1738Z" fill="url(#paint2_radial_168_740)"/>
<g style="mix-blend-mode:multiply">
<path fill-rule="evenodd" clip-rule="evenodd" d="M7.30469 19.1738C8.78729 26.1915 16.3308 31.2086 23.3168 30.149C16.4929 30.8844 8.96915 25.8277 7.30469 19.1738Z" fill="white"/>
</g>
<path fill-rule="evenodd" clip-rule="evenodd" d="M37.0675 10.3215C35.8893 8.07195 33.529 6.1584 31.3387 4.97628C23.3129 0.654989 13.3024 3.65577 8.97718 11.6816C7.92552 13.6307 7.30876 15.6945 7.09131 17.7701C8.2853 24.9617 17.3825 30.9989 24.7441 29.8444C22.6883 30.0935 20.5375 29.7298 18.5726 28.6702C13.512 25.9422 11.6221 19.6323 14.3462 14.5717C19.727 3.44228 30.8248 2.84133 37.0675 10.3215Z" fill="url(#paint3_radial_168_740)"/>
<path fill-rule="evenodd" clip-rule="evenodd" d="M16.0933 11.2349C20.8336 3.95631 28.6025 3.15373 34.5052 7.6213C28.7329 2.80186 20.9522 3.63607 16.0933 11.2349Z" fill="url(#paint4_radial_168_740)"/>
<g style="mix-blend-mode:multiply">
<path fill-rule="evenodd" clip-rule="evenodd" d="M16.0933 11.2349C20.8336 3.95631 28.6025 3.15373 34.5052 7.6213C28.7329 2.80186 20.9522 3.63607 16.0933 11.2349Z" fill="white"/>
</g>
<path fill-rule="evenodd" clip-rule="evenodd" d="M37.0677 10.3214C30.825 2.8412 19.7272 3.44214 14.3503 14.5715C17.0783 9.51092 23.3883 7.6211 28.4489 10.3451C30.0303 11.1991 31.3785 12.4247 32.3195 13.9548C34.6798 17.8056 39.7048 15.3425 37.0717 10.3175L37.0677 10.3214Z" fill="url(#paint5_radial_168_740)"/>
<path d="M36.652 28.516C36.8655 27.8044 37.1422 27.152 37.1185 26.3969C37.1027 25.8948 37.0157 25.365 36.7824 24.9143C36.5492 24.4636 36.1578 24.1038 35.6359 23.914C35.3789 23.8152 35.0982 23.7519 34.8056 23.7203C34.6593 23.7045 34.5091 23.6966 34.3589 23.6926L33.8805 23.6807C33.244 23.6649 32.6035 23.6491 31.9749 23.6373C31.6625 23.6293 31.3502 23.6214 31.0418 23.6135C30.8876 23.6135 30.7374 23.6056 30.5871 23.6056C30.429 23.6056 30.2748 23.5977 30.1206 23.5898C28.9029 23.5147 27.7761 23.2814 26.8628 22.9217C26.4082 22.7437 26.0049 22.5342 25.6768 22.3049C25.3447 22.0795 25.0837 21.8423 24.894 21.6249C24.7042 21.4074 24.5777 21.2177 24.4986 21.0872L24.3839 20.8816L24.5579 20.7907L24.6765 20.9804C24.7556 21.103 24.8821 21.273 25.0719 21.4667C25.2577 21.6605 25.5147 21.87 25.8349 22.0677C26.1551 22.2654 26.5466 22.4472 26.9894 22.5975C27.875 22.9019 28.9701 23.0758 30.1443 23.0917C30.2906 23.0917 30.4369 23.0917 30.5832 23.0877C30.7374 23.0877 30.8916 23.0798 31.0458 23.0758C31.3541 23.0679 31.6665 23.06 31.9788 23.0521C32.6074 23.0363 33.244 23.0205 33.8844 23.0086L34.3628 22.9968C34.5328 22.9968 34.7028 22.9968 34.8728 23.0086C35.2129 23.0324 35.5568 23.0917 35.8929 23.2063C36.565 23.4159 37.1778 23.9101 37.5099 24.515C37.5652 24.6098 37.6087 24.7047 37.6522 24.7996L37.7273 24.4912C38.6129 20.9409 36.8813 19.8141 34.011 19.8141C25.6491 19.8141 23.7672 17.2324 23.7672 17.2324C20.3315 22.214 23.1939 26.7566 29.6541 26.7566C30.5081 26.7566 35.2761 27.0255 35.2761 27.0255C36.1182 27.0255 36.5729 27.5474 36.652 28.5081V28.516Z" fill="url(#paint6_linear_168_740)"/>
<path d="M90.465 22.3613L94.9286 13.142L95.1506 12.698L95.2733 12.4526H98.7787V26.9475V28.5425H95.2967V26.9475V20.7897L91.8906 27.8531L91.6686 28.2971L91.5459 28.5425H90.465V27.707H91.0317L91.1311 27.485L95.3492 18.8033L96.1321 17.1849V26.9475V27.707H97.9491V26.9475V13.2881H95.7933L95.6706 13.5101L90.839 23.4888L90.4709 24.2717V22.3613H90.465ZM86.0015 13.142L90.465 22.3613V24.2717L90.097 23.4888L85.2654 13.5101L85.1427 13.2881H82.9868V26.9475V27.707H84.8038V26.9475V17.1849L85.5867 18.8033L89.8049 27.485L89.9042 27.707H90.4709V28.5425H89.39L89.2674 28.2971L89.0454 27.8531L85.6393 20.7897V26.9475V28.5425H82.1572V26.9475V12.4526H85.686L85.7853 12.698L86.0073 13.142H86.0015Z" fill="#3E3A39"/>
<path d="M85.6336 13.3351L90.4653 23.3196L95.2969 13.3351L95.5189 12.8735H95.887H96.8159H97.184H97.628H98.3583V14.0478V26.9477V28.1221H97.628H96.4478H95.7117V26.9477V19.0022L91.5169 27.6605L91.3007 28.1221H90.9326H89.9979H89.6532L89.437 27.6605L85.2188 19.0022V26.9477V28.1221H84.4827H83.3025H82.5664V26.9477V14.0478V12.8735H83.3025H83.7466H84.1146H85.0436H85.4116L85.6336 13.3351Z" fill="#3E3A39"/>
<path d="M72.1727 12.5054H73.715L73.8144 12.7507L74.0597 13.2649L80.165 26.0888L81.0238 27.9058L81.2926 28.4959H76.905L76.7823 28.2505L76.5369 27.7364L75.5787 25.674H72.1727V21.5785H74.1591L72.1727 17.4597V12.5054ZM71.2905 12.5054H72.1727V17.483L70.1863 21.5785H72.1727V25.674H68.6906L67.6624 27.7597L67.417 28.2739L67.3177 28.4959H62.9768L63.2689 27.9058L64.1277 26.0888L70.233 13.2649L70.4784 12.7507L70.5777 12.5054H71.2905Z" fill="#3E3A39"/>
<path d="M62.1177 20.451V20.8658L62.1411 21.1112C62.1411 21.5026 62.1645 21.8239 62.1645 22.0927V22.1394C62.1645 22.7529 62.1411 23.267 62.0885 23.7344C62.0418 24.2251 61.9658 24.6692 61.8665 25.0606V25.084C61.8198 25.2826 61.7672 25.452 61.7205 25.5981C61.6737 25.7675 61.5978 25.9194 61.5218 26.0889C61.1304 26.9243 60.5403 27.5085 59.8042 27.8532C59.6581 27.9292 59.5354 27.9993 59.4595 28.0227C59.3602 28.0694 59.2375 28.122 59.0914 28.1687C58.478 28.3907 57.7944 28.5134 57.0583 28.5835H56.7136C56.6376 28.6069 56.5442 28.6069 56.4215 28.6069C55.808 28.6303 55.1478 28.6536 54.4818 28.6536V28.6303C53.6697 28.6536 52.8635 28.6303 52.028 28.6303C51.1692 28.6069 50.3104 28.5835 49.4515 28.531C48.3006 28.5076 47.3425 28.2622 46.6063 27.7714C45.7709 27.2573 45.1866 26.4744 44.8419 25.4404H44.8536C44.6842 24.9262 44.5615 24.2135 44.4856 23.2845C44.4388 22.4491 44.3862 21.4208 44.3862 20.1939V20.1939C44.3862 19.4578 44.4096 18.7976 44.4622 18.1316C44.5089 17.4188 44.5849 16.8054 44.7076 16.2445C44.8536 15.3623 45.1516 14.6262 45.6131 14.0361C46.0571 13.446 46.6414 13.0546 47.3775 12.8092C47.6696 12.7099 47.9676 12.6398 48.2597 12.5872C48.5518 12.5112 48.8498 12.4879 49.1419 12.4645L49.288 12.4411H49.3113C49.434 12.4411 49.6034 12.4411 49.7787 12.4178C49.9248 12.4178 50.1 12.3944 50.2928 12.3944C51.1049 12.371 51.9579 12.3477 52.8927 12.3477H53.9209C54.1897 12.3477 54.4351 12.3477 54.6571 12.371C55.884 12.3944 56.9122 12.447 57.771 12.5171C58.1391 12.5405 58.5305 12.6164 58.8752 12.7391C59.2433 12.8384 59.588 12.9845 59.9035 13.1539H59.9269C60.0963 13.2532 60.2716 13.3759 60.441 13.4986C60.6104 13.6213 60.7623 13.7673 60.9084 13.9134C61.6211 14.6963 62.0126 15.7771 62.0827 17.1501V17.1734L62.1061 17.7635V17.8862H58.4254V17.1267C58.402 16.9281 58.3494 16.8054 58.256 16.7119C58.0865 16.5425 57.7418 16.4198 57.2744 16.3672H57.1985C57.0758 16.3438 56.9999 16.3438 56.9531 16.3438C56.8304 16.3205 56.7311 16.3205 56.6318 16.3205C56.0651 16.2971 55.2822 16.2971 54.2773 16.2971L50.2286 16.3205C49.7612 16.3205 49.3931 16.3438 49.101 16.3964C48.8556 16.4431 48.657 16.5191 48.5109 16.6184C48.5109 16.6184 48.4876 16.6418 48.4642 16.6418C48.4408 16.6651 48.4408 16.6885 48.4174 16.6885V16.7119C48.2948 16.8813 48.2188 17.1793 48.1954 17.6175V17.6642C48.1487 18.2309 48.0961 18.7918 48.0728 19.3293C48.0494 19.896 48.0494 20.4568 48.0494 20.9943V21.0411C48.0494 21.6779 48.0728 22.2446 48.0961 22.7587V22.9807C48.1195 23.3254 48.1429 23.5942 48.1954 23.7928V23.8162C48.1954 23.8629 48.2188 23.9155 48.2422 23.9622C48.2422 24.009 48.2655 24.0616 48.2889 24.0849C48.435 24.3303 48.7797 24.4764 49.3172 24.5289H49.3405C49.6619 24.5523 49.9306 24.5757 50.176 24.6049C50.4973 24.6049 50.7661 24.6283 51.0348 24.6516C51.5723 24.675 52.1858 24.675 52.8985 24.675H56.2345C56.8012 24.675 57.2628 24.6516 57.6308 24.5757C57.6776 24.5523 57.7301 24.5523 57.7769 24.5523C57.9463 24.5056 58.069 24.453 58.1216 24.4063H58.145C58.1917 24.3595 58.2676 24.2368 58.291 24.0849C58.367 23.8629 58.4137 23.5708 58.4371 23.2261H58.4137V22.7587H51.8411V19.2767H62.0652L62.1119 20.4276L62.1177 20.451Z" fill="#3E3A39"/>
<path d="M108.857 12.5054H110.399L110.522 12.7507L110.767 13.2649L116.872 26.0888L117.731 27.9058L118 28.4959H113.583L113.461 28.2505L113.215 27.7364L112.257 25.674H108.851V21.5785H110.837L108.874 17.4597L108.851 17.483V12.5054H108.857ZM107.975 12.5054H108.857V17.483L106.87 21.5785H108.857V25.674H105.375L104.37 27.7597L104.124 28.2739L104.002 28.4959H99.6609L99.953 27.9058L100.812 26.0888L106.917 13.2649L107.162 12.7507L107.285 12.5054H107.975Z" fill="#3E3A39"/>
<defs>
<radialGradient id="paint0_radial_168_740" cx="0" cy="0" r="1" gradientUnits="userSpaceOnUse" gradientTransform="translate(-17.5764 17.9927) rotate(20.45) scale(60.8855 60.8855)">
<stop offset="0.37" stop-color="#E5E500"/>
<stop offset="0.65" stop-color="#15953B"/>
<stop offset="0.87" stop-color="#001000"/>
</radialGradient>
<radialGradient id="paint1_radial_168_740" cx="0" cy="0" r="1" gradientUnits="userSpaceOnUse" gradientTransform="translate(15.4885 24.9507) rotate(20.45) scale(7.81627)">
<stop offset="0.28" stop-color="#E5E500"/>
<stop offset="0.8" stop-color="#15953B"/>
</radialGradient>
<radialGradient id="paint2_radial_168_740" cx="0" cy="0" r="1" gradientUnits="userSpaceOnUse" gradientTransform="translate(13.5463 27.7037) rotate(20.45) scale(12.4815 12.4815)">
<stop stop-color="white"/>
<stop offset="0.33" stop-color="white"/>
<stop offset="0.66" stop-color="white"/>
<stop offset="1" stop-color="white"/>
</radialGradient>
<radialGradient id="paint3_radial_168_740" cx="0" cy="0" r="1" gradientUnits="userSpaceOnUse" gradientTransform="translate(30.5615 -16.8519) rotate(20.45) scale(52.8636 52.8636)">
<stop offset="0.37" stop-color="#E5E500"/>
<stop offset="0.67" stop-color="#15953B"/>
<stop offset="0.86" stop-color="#001000"/>
</radialGradient>
<radialGradient id="paint4_radial_168_740" cx="0" cy="0" r="1" gradientUnits="userSpaceOnUse" gradientTransform="translate(26.2365 4.72612) rotate(20.45) scale(11.8964)">
<stop stop-color="white"/>
<stop offset="0.33" stop-color="white"/>
<stop offset="0.66" stop-color="white"/>
<stop offset="1" stop-color="white"/>
</radialGradient>
<radialGradient id="paint5_radial_168_740" cx="0" cy="0" r="1" gradientUnits="userSpaceOnUse" gradientTransform="translate(56.2965 23.7831) rotate(20.45) scale(49.4121 49.4121)">
<stop offset="0.37" stop-color="#E5E500"/>
<stop offset="0.64" stop-color="#15953B"/>
<stop offset="0.78" stop-color="#001000"/>
</radialGradient>
<linearGradient id="paint6_linear_168_740" x1="22.4309" y1="19.9999" x2="37.7234" y2="25.5666" gradientUnits="userSpaceOnUse">
<stop offset="0.32" stop-color="#ABCD03"/>
<stop offset="0.91" stop-color="#94B200"/>
</linearGradient>
</defs>
</svg>
