<svg width="24" height="24" viewBox="0 0 24 24" fill="none" xmlns="http://www.w3.org/2000/svg">
<path d="M9 3H18.2578L19.5 4.24266V7.5H22.5V3.62109C22.5 3.22341 22.3418 2.84203 22.0605 2.56078L19.9395 0.439687C19.6594 0.158203 19.275 0 18.8812 0H7.5C6.67031 0 6 0.671719 6 1.5V7.5H9V3ZM3 6H1.5C0.674062 6 0 6.675 0 7.5V22.5C0 23.3259 0.674062 24 1.5 24H3C3.82594 24 4.5 23.3259 4.5 22.5V7.5C4.5 6.675 3.82641 6 3 6ZM22.5 9H6V22.5C6 23.325 6.675 24 7.5 24H22.5C23.325 24 24 23.325 24 22.5V10.5C24 9.675 23.325 9 22.5 9ZM13.5 20.25C13.5 20.666 13.166 21 12.75 21H11.25C10.8328 21 10.5 20.6672 10.5 20.25V18.75C10.5 18.3328 10.8328 18 11.25 18H12.75C13.166 18 13.5 18.334 13.5 18.75V20.25ZM13.5 14.25C13.5 14.666 13.166 15 12.75 15H11.25C10.8328 15 10.5 14.6672 10.5 14.25V12.75C10.5 12.3328 10.8328 12 11.25 12H12.75C13.1672 12 13.5 12.3328 13.5 12.75V14.25ZM19.5 20.25C19.5 20.666 19.166 21 18.75 21H17.25C16.834 21 16.5 20.666 16.5 20.25V18.75C16.5 18.334 16.834 18 17.25 18H18.75C19.166 18 19.5 18.334 19.5 18.75V20.25ZM19.5 14.25C19.5 14.666 19.166 15 18.75 15H17.25C16.8328 15 16.5 14.6672 16.5 14.25V12.75C16.5 12.3328 16.8328 12 17.25 12H18.75C19.1672 12 19.5 12.3328 19.5 12.75V14.25Z" fill="white"/>
</svg>
