<svg width="40" height="40" viewBox="0 0 40 40" fill="none" xmlns="http://www.w3.org/2000/svg">
<path d="M33.3828 11.2773C33.6172 11.5117 33.75 11.8281 33.75 12.1602V36.25C33.75 36.9414 33.1914 37.5 32.5 37.5H7.5C6.80859 37.5 6.25 36.9414 6.25 36.25V3.75C6.25 3.05859 6.80859 2.5 7.5 2.5H24.0898C24.4219 2.5 24.7422 2.63281 24.9766 2.86719L33.3828 11.2773ZM30.8672 12.7344L23.5156 5.38281V12.7344H30.8672ZM12.5 18.8281C12.4171 18.8281 12.3376 18.861 12.279 18.9197C12.2204 18.9783 12.1875 19.0577 12.1875 19.1406V21.0156C12.1875 21.0985 12.2204 21.178 12.279 21.2366C12.3376 21.2952 12.4171 21.3281 12.5 21.3281H27.5C27.5829 21.3281 27.6624 21.2952 27.721 21.2366C27.7796 21.178 27.8125 21.0985 27.8125 21.0156V19.1406C27.8125 19.0577 27.7796 18.9783 27.721 18.9197C27.6624 18.861 27.5829 18.8281 27.5 18.8281H12.5ZM12.5 24.1406C12.4171 24.1406 12.3376 24.1735 12.279 24.2322C12.2204 24.2908 12.1875 24.3702 12.1875 24.4531V26.3281C12.1875 26.411 12.2204 26.4905 12.279 26.5491C12.3376 26.6077 12.4171 26.6406 12.5 26.6406H19.6875C19.7704 26.6406 19.8499 26.6077 19.9085 26.5491C19.9671 26.4905 20 26.411 20 26.3281V24.4531C20 24.3702 19.9671 24.2908 19.9085 24.2322C19.8499 24.1735 19.7704 24.1406 19.6875 24.1406H12.5Z" fill="white"/>
</svg>
