<svg width="41" height="40" viewBox="0 0 41 40" fill="none" xmlns="http://www.w3.org/2000/svg">
<path d="M33.082 18.3281C32.3237 16.6213 31.2213 15.0893 29.8438 13.8281L28.707 12.7851C28.6684 12.7507 28.622 12.7262 28.5717 12.7139C28.5215 12.7016 28.469 12.7019 28.4189 12.7146C28.3687 12.7273 28.3225 12.7522 28.2842 12.7869C28.2459 12.8217 28.2167 12.8653 28.1992 12.914L27.6914 14.371C27.375 15.2851 26.793 16.2187 25.9688 17.1367C25.9141 17.1953 25.8516 17.2109 25.8086 17.2148C25.7656 17.2187 25.6992 17.2109 25.6406 17.1562C25.5859 17.1093 25.5586 17.039 25.5625 16.9687C25.707 14.6171 25.0039 11.9648 23.4648 9.07808C22.1914 6.67964 20.4219 4.80855 18.2109 3.50386L16.5977 2.55464C16.3867 2.42964 16.1172 2.5937 16.1289 2.8398L16.2148 4.7148C16.2734 5.99605 16.125 7.12886 15.7734 8.07027C15.3438 9.22261 14.7266 10.2929 13.9375 11.2539C13.3884 11.9217 12.766 12.5257 12.082 13.0546C10.4348 14.3209 9.09536 15.9434 8.16406 17.8007C7.23505 19.6742 6.75113 21.7369 6.75 23.8281C6.75 25.6718 7.11328 27.457 7.83203 29.1406C8.52604 30.7615 9.52757 32.2327 10.7813 33.4726C12.0469 34.7226 13.5156 35.707 15.1523 36.3906C16.8477 37.1015 18.6445 37.4609 20.5 37.4609C22.3555 37.4609 24.1523 37.1015 25.8477 36.3945C27.4803 35.7149 28.965 34.7238 30.2188 33.4765C31.4844 32.2265 32.4766 30.7656 33.168 29.1445C33.8856 27.4655 34.2538 25.6579 34.25 23.832C34.25 21.9257 33.8594 20.0742 33.082 18.3281ZM28.3516 31.582C26.2539 33.6601 23.4688 34.8007 20.5 34.8007C17.5313 34.8007 14.7461 33.6601 12.6484 31.582C10.5586 29.5078 9.40625 26.7578 9.40625 23.832C9.40625 22.1328 9.78906 20.5039 10.543 18.9882C11.2773 17.5078 12.3711 16.1835 13.6992 15.164C14.5462 14.5163 15.3145 13.7717 15.9883 12.9453C16.9648 11.7539 17.7305 10.4257 18.2617 8.99995C18.4796 8.41182 18.638 7.8033 18.7344 7.18355C19.6758 8.05073 20.4648 9.09761 21.125 10.3242C22.4297 12.7695 23.0313 14.9453 22.9141 16.7968C22.8861 17.2329 22.9573 17.6697 23.1224 18.0743C23.2875 18.4788 23.5421 18.8408 23.8672 19.1328C24.1489 19.3872 24.4784 19.5832 24.8365 19.7093C25.1946 19.8353 25.5741 19.889 25.9531 19.8671C26.7227 19.8281 27.4297 19.4882 27.9453 18.914C28.4648 18.332 28.9141 17.7382 29.2891 17.1328C29.8359 17.832 30.293 18.5937 30.6563 19.414C31.2773 20.8125 31.5938 22.3007 31.5938 23.832C31.5938 26.7578 30.4414 29.5117 28.3516 31.582Z" fill="#51FE28"/>
<path d="M19.5 21L15 27H19.5L16.5 33L27 25.5H21L25.5 21H19.5Z" fill="#51FE28"/>
</svg>
