<svg width="41" height="40" viewBox="0 0 41 40" fill="none" xmlns="http://www.w3.org/2000/svg">
<path d="M33.7734 31.2852C33.7813 31.2734 33.793 31.2617 33.8008 31.25C36.3594 28.207 37.8984 24.2852 37.8984 20C37.8984 15.7148 36.3594 11.793 33.8047 8.75C33.7969 8.73828 33.7852 8.73047 33.7773 8.71875C33.7344 8.66797 33.6953 8.62109 33.6523 8.57422C33.6367 8.55469 33.6211 8.53906 33.6055 8.51953L33.4453 8.33594L33.4414 8.33203C33.3828 8.26562 33.3203 8.19922 33.2617 8.13281L33.2578 8.12891C33.1328 7.99609 33.0078 7.86328 32.8789 7.73438L32.875 7.73047L32.6875 7.54297L32.6758 7.53125C32.6172 7.47266 32.5586 7.41797 32.5 7.36328C32.4805 7.34375 32.4609 7.32422 32.4375 7.30469C32.3984 7.26562 32.3594 7.23047 32.3203 7.19531C32.3086 7.18359 32.293 7.17188 32.2812 7.15625C29.1641 4.26562 24.9883 2.5 20.3984 2.5C15.8086 2.5 11.6328 4.26562 8.51172 7.15625C8.5 7.16797 8.48438 7.17969 8.47266 7.19531C8.43359 7.23047 8.39453 7.26953 8.35547 7.30859C8.33594 7.32812 8.31641 7.34766 8.29297 7.36719C8.23438 7.42188 8.17578 7.48047 8.11719 7.53516L8.10547 7.54688L7.91797 7.73438L7.91406 7.73828C7.78516 7.86719 7.66016 8 7.53516 8.13281L7.53125 8.13672C7.46875 8.20312 7.41016 8.26953 7.35156 8.33594L7.34766 8.33984C7.29297 8.39844 7.23828 8.46094 7.1875 8.52344C7.17188 8.54297 7.15625 8.55859 7.14062 8.57812C7.09766 8.625 7.05859 8.67578 7.01562 8.72266C7.00781 8.73438 6.99609 8.74219 6.98828 8.75391C4.4375 11.793 2.89844 15.7148 2.89844 20C2.89844 24.2852 4.4375 28.207 6.99219 31.25C7 31.2617 7.01172 31.2734 7.01953 31.2852L7.14062 31.4297C7.15625 31.4492 7.17188 31.4648 7.1875 31.4844L7.34766 31.668C7.34766 31.6719 7.35156 31.6719 7.35156 31.6758C7.41016 31.7422 7.46875 31.8086 7.53125 31.8711L7.53516 31.875C7.66016 32.0078 7.78516 32.1406 7.91016 32.2695L7.91406 32.2734C7.97656 32.3359 8.03516 32.3984 8.09766 32.457L8.10938 32.4688C8.23828 32.5977 8.37109 32.7227 8.50391 32.8438C11.6328 35.7344 15.8086 37.5 20.3984 37.5C24.9883 37.5 29.1641 35.7344 32.2852 32.8438C32.4182 32.7218 32.5485 32.5967 32.6758 32.4688L32.6875 32.457C32.75 32.3945 32.8125 32.3359 32.8711 32.2734L32.875 32.2695C33.0039 32.1406 33.1289 32.0078 33.25 31.875L33.2539 31.8711C33.3125 31.8047 33.375 31.7422 33.4336 31.6758C33.4336 31.6719 33.4375 31.6719 33.4375 31.668C33.4922 31.6094 33.5469 31.5469 33.5977 31.4844C33.6133 31.4648 33.6289 31.4492 33.6445 31.4297C33.6887 31.3826 33.7317 31.3344 33.7734 31.2852ZM33.9336 25.7148C33.3945 26.9883 32.6836 28.168 31.8164 29.2383C30.8398 28.3942 29.7719 27.6618 28.6328 27.0547C29.0859 25.2227 29.3672 23.2109 29.4414 21.0938H35.0469C34.9297 22.6914 34.5547 24.2422 33.9336 25.7148ZM35.0469 18.9062H29.4414C29.3672 16.7891 29.0859 14.7773 28.6328 12.9453C29.7773 12.3359 30.8438 11.6016 31.8164 10.7617C33.7014 13.0819 34.829 15.9248 35.0469 18.9062ZM26.1133 6.46484C27.6641 7.12109 29.0742 8.02734 30.3164 9.16797C29.5948 9.78239 28.8181 10.329 27.9961 10.8008C27.3828 9.04297 26.5977 7.51562 25.6836 6.29297C25.8281 6.34766 25.9727 6.40625 26.1133 6.46484ZM22.5742 33.832C22.2148 34.1133 21.8555 34.3281 21.4922 34.4727V27.2266C23.0422 27.3347 24.5664 27.6799 26.0117 28.25C25.6875 29.2109 25.3125 30.0977 24.8789 30.8984C24.1992 32.1641 23.4023 33.1758 22.5742 33.832ZM24.8789 9.10156C25.3086 9.90625 25.6875 10.793 26.0117 11.75C24.5664 12.3201 23.0422 12.6653 21.4922 12.7734V5.53125C21.8516 5.67578 22.2148 5.88672 22.5742 6.17188C23.4023 6.82422 24.1992 7.83594 24.8789 9.10156ZM21.4922 25.0352V21.0938H27.2539C27.1914 22.8203 26.9766 24.4961 26.6172 26.0859L26.6055 26.1328C24.9661 25.5112 23.2422 25.1411 21.4922 25.0352ZM21.4922 18.9062V14.9648C23.2812 14.8555 25 14.4766 26.6055 13.8672L26.6172 13.9141C26.9766 15.5039 27.1914 17.1758 27.2539 18.9062H21.4922ZM19.3047 21.0938V25.0352C17.5156 25.1445 15.7969 25.5234 14.1914 26.1328L14.1797 26.0859C13.8203 24.4961 13.6055 22.8242 13.543 21.0938H19.3047ZM13.543 18.9062C13.6055 17.1797 13.8203 15.5039 14.1797 13.9141L14.1914 13.8672C15.7969 14.4766 17.5117 14.8555 19.3047 14.9648V18.9062H13.543ZM19.3047 27.2266V34.4688C18.9453 34.3242 18.582 34.1133 18.2227 33.8281C17.3945 33.1758 16.5938 32.1602 15.9141 30.8945C15.4844 30.0898 15.1055 29.2031 14.7812 28.2461C16.2344 27.6758 17.7461 27.3359 19.3047 27.2266ZM19.3047 12.7734C17.7547 12.6653 16.2305 12.3201 14.7852 11.75C15.1094 10.7891 15.4844 9.90234 15.918 9.10156C16.5977 7.83594 17.3945 6.82031 18.2266 6.16797C18.5859 5.88672 18.9453 5.67188 19.3086 5.52734V12.7734H19.3047ZM14.6836 6.46484C14.8281 6.40625 14.9688 6.34766 15.1133 6.29297C14.1992 7.51562 13.4141 9.04297 12.8008 10.8008C11.9805 10.332 11.2031 9.78516 10.4805 9.16797C11.7227 8.02734 13.1328 7.12109 14.6836 6.46484ZM6.86328 14.2852C7.40234 13.0117 8.11328 11.832 8.98047 10.7617C9.95312 11.6016 11.0195 12.3359 12.1641 12.9453C11.7109 14.7773 11.4297 16.7891 11.3555 18.9062H5.75C5.86719 17.3086 6.24219 15.7578 6.86328 14.2852ZM5.75 21.0938H11.3555C11.4297 23.2109 11.7109 25.2227 12.1641 27.0547C11.0249 27.6618 9.95712 28.3942 8.98047 29.2383C7.09543 26.9181 5.96784 24.0752 5.75 21.0938ZM14.6836 33.5352C13.1328 32.8789 11.7227 31.9727 10.4805 30.832C11.2031 30.2148 11.9805 29.6719 12.8008 29.1992C13.4141 30.957 14.1992 32.4844 15.1133 33.707C14.9688 33.6523 14.8242 33.5938 14.6836 33.5352ZM26.1133 33.5352C25.9688 33.5938 25.8281 33.6523 25.6836 33.707C26.5977 32.4844 27.3828 30.957 27.9961 29.1992C28.8164 29.668 29.5938 30.2148 30.3164 30.832C29.0811 31.9679 27.6592 32.8823 26.1133 33.5352Z" fill="url(#paint0_radial_57_584)"/>
<defs>
<radialGradient id="paint0_radial_57_584" cx="0" cy="0" r="1" gradientUnits="userSpaceOnUse" gradientTransform="translate(26.6163 -6.6855) rotate(35.9363) scale(23.8094 34.5597)">
<stop stop-color="white"/>
<stop offset="0.416667" stop-color="#E5E500"/>
<stop offset="1" stop-color="#8FEA47"/>
</radialGradient>
</defs>
</svg>
