<svg width="24" height="22" viewBox="0 0 24 22" fill="none" xmlns="http://www.w3.org/2000/svg">
<g clip-path="url(#clip0_10_202)">
<path d="M17 5C17 7.275 13.9542 11.3292 12.6167 12.9625C12.2958 13.4 11.7042 13.4 11.3833 12.9625C10.0458 11.3292 7 7.275 7 5C7 2.23875 9.2375 0 12 0C14.7625 0 17 2.23875 17 5ZM12 6.33333C12.9208 6.33333 13.6667 5.5875 13.6667 4.66667C13.6667 3.74625 12.9208 3 12 3C11.0792 3 10.3333 3.74625 10.3333 4.66667C10.3333 5.5875 11.0792 6.33333 12 6.33333ZM17.7333 7.49167C17.7542 7.44167 17.775 7.39167 17.7958 7.3375L22.6292 5.40417C23.2875 5.14167 24 5.625 24 6.33333V17.6167C24 18.025 23.75 18.3917 23.3708 18.5458L17.3333 20.9583V8.35C17.4792 8.0625 17.6125 7.77917 17.7333 7.49167ZM6.26667 7.49167C6.3875 7.77917 6.52083 8.0625 6.66667 8.35V18.825L1.37125 20.9458C0.714583 21.1708 0 20.725 0 20.0167V8.73333C0 8.325 0.248958 7.92083 0.62875 7.80417L5.73333 5.7625C5.83333 6.35417 6.0375 6.94167 6.26667 7.49167ZM13.6583 13.7958C14.2375 13.1083 15.1458 11.9292 16 10.625V21.0125L8 18.725V10.625C8.85417 11.9292 9.7625 13.1083 10.3417 13.7958C11.1958 14.9 12.8042 14.9 13.6583 13.7958Z" fill="white"/>
</g>
<defs>
<clipPath id="clip0_10_202">
<rect width="24" height="21.3333" fill="white"/>
</clipPath>
</defs>
</svg>
