<svg width="40" height="40" viewBox="0 0 40 40" fill="none" xmlns="http://www.w3.org/2000/svg">
<path fill-rule="evenodd" clip-rule="evenodd" d="M37.3333 31.3333V12.6667H2.66667V31.3333H37.3333ZM40 12.6667V31.3333C40 32.0406 39.719 32.7189 39.219 33.219C38.7189 33.719 38.0406 34 37.3333 34H2.66667C1.95942 34 1.28115 33.719 0.781049 33.219C0.280952 32.7189 0 32.0406 0 31.3333V12.6667C0 11.9594 0.280952 11.2811 0.781049 10.781C1.28115 10.281 1.95942 10 2.66667 10H37.3333C38.0406 10 38.7189 10.281 39.219 10.781C39.719 11.2811 40 11.9594 40 12.6667ZM5.33333 16C5.33333 15.8232 5.40357 15.6536 5.5286 15.5286C5.65362 15.4036 5.82319 15.3333 6 15.3333H15.3333C15.5101 15.3333 15.6797 15.4036 15.8047 15.5286C15.9298 15.6536 16 15.8232 16 16V28C16 28.1768 15.9298 28.3464 15.8047 28.4714C15.6797 28.5964 15.5101 28.6667 15.3333 28.6667H6C5.82319 28.6667 5.65362 28.5964 5.5286 28.4714C5.40357 28.3464 5.33333 28.1768 5.33333 28V16ZM20 20.6667C19.6464 20.6667 19.3072 20.8071 19.0572 21.0572C18.8071 21.3072 18.6667 21.6464 18.6667 22C18.6667 22.3536 18.8071 22.6928 19.0572 22.9428C19.3072 23.1929 19.6464 23.3333 20 23.3333H28C28.3536 23.3333 28.6928 23.1929 28.9428 22.9428C29.1929 22.6928 29.3333 22.3536 29.3333 22C29.3333 21.6464 29.1929 21.3072 28.9428 21.0572C28.6928 20.8071 28.3536 20.6667 28 20.6667H20ZM18.6667 27.3333C18.6667 26.9797 18.8071 26.6406 19.0572 26.3905C19.3072 26.1405 19.6464 26 20 26H33.3333C33.687 26 34.0261 26.1405 34.2761 26.3905C34.5262 26.6406 34.6667 26.9797 34.6667 27.3333C34.6667 27.687 34.5262 28.0261 34.2761 28.2761C34.0261 28.5262 33.687 28.6667 33.3333 28.6667H20C19.6464 28.6667 19.3072 28.5262 19.0572 28.2761C18.8071 28.0261 18.6667 27.687 18.6667 27.3333ZM20 15.3333C19.6464 15.3333 19.3072 15.4738 19.0572 15.7239C18.8071 15.9739 18.6667 16.313 18.6667 16.6667C18.6667 17.0203 18.8071 17.3594 19.0572 17.6095C19.3072 17.8595 19.6464 18 20 18H30.6667C31.0203 18 31.3594 17.8595 31.6095 17.6095C31.8595 17.3594 32 17.0203 32 16.6667C32 16.313 31.8595 15.9739 31.6095 15.7239C31.3594 15.4738 31.0203 15.3333 30.6667 15.3333H20Z" fill="white"/>
</svg>
