<svg width="41" height="40" viewBox="0 0 41 40" fill="none" xmlns="http://www.w3.org/2000/svg">
<path d="M32.1953 18.0742C30.4063 13.3555 25.8477 10 20.5078 10C15.168 10 10.6094 13.3516 8.82031 18.0703C5.47266 18.9492 3 21.9961 3 25.625C3 29.9414 6.49609 33.4375 10.8086 33.4375H30.1914C34.5039 33.4375 38 29.9414 38 25.625C38 22.0039 35.5352 18.957 32.1953 18.0742ZM33.6133 29.0508C33.165 29.5017 32.6318 29.8592 32.0444 30.1026C31.457 30.346 30.8272 30.4704 30.1914 30.4688H10.8086C9.51562 30.4688 8.30078 29.9648 7.38672 29.0508C6.93576 28.6018 6.57827 28.0678 6.33488 27.4798C6.0915 26.8918 5.96706 26.2614 5.96875 25.625C5.96875 24.5312 6.32422 23.5039 6.99219 22.6445C7.64632 21.812 8.55201 21.2133 9.57422 20.9375L11.0547 20.5508L11.5977 19.1211C11.9336 18.2305 12.4023 17.3984 12.9922 16.6445C13.5745 15.8973 14.2643 15.2404 15.0391 14.6953C16.6445 13.5664 18.5352 12.9688 20.5078 12.9688C22.4805 12.9688 24.3711 13.5664 25.9766 14.6953C26.7539 15.2422 27.4414 15.8984 28.0234 16.6445C28.6133 17.3984 29.082 18.2344 29.418 19.1211L29.957 20.5469L31.4336 20.9375C33.5547 21.5039 35.0312 23.4297 35.0312 25.625C35.0312 26.918 34.5273 28.1367 33.6133 29.0508Z" fill="#51FE28"/>
<path d="M14.955 27.3737C15.8767 27.3737 16.6352 27.0089 17.2209 26.3272L16.472 25.4439C16.088 25.8567 15.6079 26.1448 15.003 26.1448C13.8797 26.1448 13.15 25.2135 13.15 23.6677C13.15 22.1411 13.9565 21.2194 15.0318 21.2194C15.5695 21.2194 15.9823 21.469 16.3376 21.8146L17.0865 20.9121C16.6256 20.4321 15.9055 20 15.003 20C13.2076 20 11.7002 21.373 11.7002 23.7157C11.7002 26.0872 13.1596 27.3737 14.955 27.3737Z" fill="#51FE28"/>
<path d="M21.08 27.3737C22.9619 27.3737 24.258 25.9624 24.258 23.6581C24.258 21.3538 22.9619 20 21.08 20C19.1982 20 17.902 21.3442 17.902 23.6581C17.902 25.9624 19.1982 27.3737 21.08 27.3737ZM21.08 26.1448C20.0239 26.1448 19.3518 25.1751 19.3518 23.6581C19.3518 22.1315 20.0239 21.2194 21.08 21.2194C22.1362 21.2194 22.8082 22.1315 22.8082 23.6581C22.8082 25.1751 22.1362 26.1448 21.08 26.1448Z" fill="#51FE28"/>
<path d="M25.3254 27.2393H28.5002V26.4456H27.4697C27.252 26.4456 26.9384 26.4712 26.7016 26.4968C27.5657 25.6519 28.2762 24.7302 28.2762 23.8725C28.2762 22.9892 27.6809 22.4131 26.7848 22.4131C26.1383 22.4131 25.7158 22.6691 25.2806 23.13L25.7927 23.6421C26.0295 23.3796 26.3175 23.1556 26.6632 23.1556C27.1112 23.1556 27.3737 23.4436 27.3737 23.9237C27.3737 24.6534 26.612 25.5431 25.3254 26.6953V27.2393Z" fill="#51FE28"/>
<circle cx="7" cy="10.5" r="1.5" fill="#51FE28"/>
<circle cx="22" cy="4.5" r="1.5" fill="#51FE28"/>
<circle cx="34" cy="12.5" r="1.5" fill="#51FE28"/>
</svg>
