<svg width="40" height="40" viewBox="0 0 40 40" fill="none" xmlns="http://www.w3.org/2000/svg">
<path d="M20.0001 5C19.0835 5 18.3335 5.75 18.3335 6.66667V20C18.3335 20.9167 19.0835 21.6667 20.0001 21.6667C20.9168 21.6667 21.6668 20.9167 21.6668 20V6.66667C21.6668 5.75 20.9168 5 20.0001 5ZM28.5668 9.76667C28.2602 10.0732 28.0866 10.4881 28.0835 10.9216C28.0804 11.3551 28.248 11.7724 28.5501 12.0833C30.4335 14.0833 31.6001 16.75 31.6668 19.7C31.8168 26.0833 26.5335 31.5833 20.1501 31.65C18.6057 31.6741 17.072 31.3905 15.6383 30.8156C14.2047 30.2408 12.8998 29.3862 11.7999 28.3018C10.7 27.2174 9.82698 25.9248 9.23183 24.4995C8.63667 23.0742 8.33128 21.5446 8.33346 20C8.33346 16.9333 9.5168 14.15 11.4501 12.0667C12.0668 11.4167 12.0668 10.4 11.4335 9.76667C11.2768 9.60861 11.09 9.48376 10.884 9.39958C10.678 9.31539 10.4572 9.27361 10.2347 9.27672C10.0122 9.27983 9.79265 9.32778 9.58911 9.41769C9.38558 9.5076 9.20226 9.63763 9.05013 9.8C6.54896 12.4493 5.10774 15.9248 5.00013 19.5667C4.76679 27.7 11.3835 34.7333 19.5168 34.9833C28.0168 35.25 35.0001 28.4333 35.0001 19.9833C35.0001 16.0333 33.4668 12.4667 30.9668 9.8C30.3335 9.11667 29.2335 9.1 28.5668 9.76667Z" fill="url(#paint0_radial_57_560)"/>
<defs>
<radialGradient id="paint0_radial_57_560" cx="0" cy="0" r="1" gradientUnits="userSpaceOnUse" gradientTransform="translate(25.3278 -2.8709) rotate(35.9226) scale(20.4086 29.6188)">
<stop stop-color="white"/>
<stop offset="0.416667" stop-color="#E5E500"/>
<stop offset="1" stop-color="#8FEA47"/>
</radialGradient>
</defs>
</svg>
