<svg width="40" height="40" viewBox="0 0 40 40" fill="none" xmlns="http://www.w3.org/2000/svg">
<path d="M18.9222 0V6.34743H21.0782V0H18.922H18.9222ZM10.1185 1.9075L8.35214 3.14427L11.9922 8.34247L13.7577 7.10567L10.1185 1.9075ZM29.8814 1.9075L26.2424 7.1057L28.0081 8.3425L31.6481 3.14427L29.8817 1.9075H29.8814ZM19.9997 8.08413C14.7255 8.08413 10.45 11.2869 10.45 15.2383L15.8757 31.6699H24.1247L29.55 15.2383C29.55 11.287 25.2747 8.08413 20.0002 8.08413H19.9997ZM2.84894 9.9891L2.1123 12.0162L8.07394 14.1867L8.8133 12.1605L2.8488 9.9891H2.84894ZM37.151 9.9891L31.1865 12.1607L31.9233 14.1871L37.8879 12.0163L37.151 9.9891ZM8.5253 19.256L2.3953 20.9002L2.9515 22.9813L9.0815 21.3394L8.52541 19.256H8.5253ZM31.4746 19.256L30.9188 21.3394L37.0488 22.981L37.6046 20.8999L31.4746 19.256V19.256ZM15.7554 32.8677V35.7239H24.245V32.8682H15.7555L15.7554 32.8677ZM15.7554 37.1438V40H24.245V37.1443H15.7555L15.7554 37.1438Z" fill="white"/>
</svg>
