<svg width="40" height="40" viewBox="0 0 40 40" fill="none" xmlns="http://www.w3.org/2000/svg">
<path d="M20.2283 4.32897C20.1384 4.2258 20.0267 4.14297 19.9011 4.08619C19.7754 4.0294 19.6387 4 19.5004 4C19.3621 4 19.2254 4.0294 19.0997 4.08619C18.9741 4.14297 18.8624 4.2258 18.7725 4.32897C16.2441 7.23274 8 17.2717 8 24.708C8 31.6377 12.4435 36 19.5 36C26.5565 36 31 31.6377 31 24.708C31 17.2717 22.7559 7.23274 20.2283 4.32897ZM20.7778 31.9223C20.6243 31.9226 20.473 31.8868 20.3365 31.8177C20.2001 31.7486 20.0826 31.6484 19.9938 31.5254C19.9051 31.4025 19.8477 31.2604 19.8265 31.1111C19.8053 30.9618 19.821 30.8097 19.8722 30.6676C19.9375 30.4822 20.0608 30.3218 20.2244 30.2092C20.388 30.0965 20.5836 30.0374 20.7834 30.0403C22.0519 30.0376 23.2676 29.5416 24.1646 28.6609C25.0616 27.7801 25.5667 26.5863 25.5694 25.3408C25.5665 25.1446 25.6267 24.9525 25.7414 24.7919C25.8561 24.6312 26.0195 24.5102 26.2083 24.446C26.353 24.3958 26.5079 24.3804 26.66 24.4012C26.812 24.422 26.9567 24.4783 27.0819 24.5655C27.2072 24.6527 27.3092 24.7681 27.3796 24.902C27.4499 25.036 27.4864 25.1846 27.4861 25.3353C27.4842 27.0817 26.7768 28.7561 25.5192 29.991C24.2615 31.2259 22.5564 31.9205 20.7778 31.9223Z" fill="#51FE28"/>
</svg>
