<svg width="625" height="160" viewBox="0 0 625 160" fill="none" xmlns="http://www.w3.org/2000/svg">
<mask id="mask0_334_830" style="mask-type:alpha" maskUnits="userSpaceOnUse" x="0" y="0" width="625" height="160">
<rect width="625" height="160" fill="#D9D9D9"/>
</mask>
<g mask="url(#mask0_334_830)">
<path d="M349.135 20.8461L388.354 101.161L427.574 20.8461L429.376 17.1334H432.364H439.904H442.892H446.496H452.424V26.5795V130.345V139.792H446.496H436.916H430.941V130.345V66.4316L396.891 136.079L395.136 139.792H392.148H384.56H381.762L380.008 136.079L345.768 66.4316V130.345V139.792H339.792H330.213H324.237V130.345V26.5795V17.1334H330.213H333.817H336.805H344.345H347.333L349.135 20.8461Z" fill="#3E3A39" fill-opacity="0.05"/>
<path d="M239.875 14.1724H252.394L253.201 16.1462L255.192 20.2818L304.75 123.437L311.722 138.052L313.903 142.799H278.288L277.292 140.825L275.3 136.69L267.523 120.1H239.875V87.1563H255.999L239.875 54.0245V14.1724V14.1724ZM232.714 14.1724H239.875V54.2125L223.75 87.1563H239.875V120.1H211.61L203.263 136.878L201.272 141.013L200.465 142.799H165.229L167.601 138.052L174.572 123.437L224.13 20.2818L226.122 16.1462L226.928 14.1724H232.714V14.1724Z" fill="#3E3A39" fill-opacity="0.05"/>
<path d="M158.253 78.086V81.4226L158.443 83.3964C158.443 86.5451 158.633 89.1299 158.633 91.2917V91.6676C158.633 96.6022 158.443 100.738 158.016 104.497C157.637 108.445 157.02 112.017 156.214 115.165V115.353C155.835 116.951 155.408 118.314 155.029 119.489C154.649 120.852 154.033 122.074 153.416 123.437C150.239 130.157 145.449 134.856 139.474 137.629C138.288 138.24 137.292 138.804 136.676 138.992C135.869 139.368 134.874 139.791 133.688 140.167C128.708 141.953 123.16 142.94 117.184 143.504H114.386C113.77 143.692 113.011 143.692 112.015 143.692C107.036 143.88 101.677 144.068 96.2706 144.068V143.88C89.6787 144.068 83.1342 143.88 76.3526 143.88C69.3813 143.692 62.41 143.504 55.4387 143.081C46.0962 142.893 38.3187 140.919 32.3433 136.971C25.5617 132.836 20.8193 126.538 18.0213 118.22H18.1162C16.7409 114.084 15.745 108.351 15.1285 100.879C14.7491 94.1584 14.3223 85.8872 14.3223 76.0181V76.0181C14.3223 70.0967 14.512 64.7862 14.9388 59.4288C15.3182 53.6953 15.9347 48.7608 16.9306 44.2492C18.1162 37.1529 20.5348 31.2315 24.2813 26.4849C27.8855 21.7384 32.6279 18.5897 38.6032 16.6159C40.9744 15.817 43.3931 15.253 45.7642 14.8301C48.1354 14.2191 50.554 14.0312 52.9252 13.8432L54.1108 13.6552H54.3005C55.2964 13.6552 56.6717 13.6552 58.0944 13.4672C59.28 13.4672 60.7027 13.2792 62.2677 13.2792C68.8596 13.0912 75.7835 12.9033 83.3713 12.9033H91.7179C93.8994 12.9033 95.8912 12.9033 97.6933 13.0912C107.652 13.2792 115.999 13.7022 122.97 14.2661C125.958 14.4541 129.135 15.0651 131.933 16.052C134.921 16.8509 137.719 18.0258 140.28 19.3887H140.47C141.845 20.1876 143.268 21.1745 144.643 22.1614C146.018 23.1483 147.251 24.3232 148.437 25.498C154.222 31.7954 157.4 40.4896 157.969 51.5335V51.7215L158.159 56.4681V57.455H128.282V51.3455C128.092 49.7477 127.665 48.7608 126.906 48.0089C125.531 46.646 122.733 45.6591 118.939 45.2361H118.323C117.327 45.0482 116.71 45.0482 116.331 45.0482C115.335 44.8602 114.529 44.8602 113.723 44.8602C109.122 44.6722 102.768 44.6722 94.6108 44.6722L61.7461 44.8602C57.9522 44.8602 54.9645 45.0481 52.5933 45.4711C50.6015 45.8471 48.9891 46.458 47.8035 47.257C47.8035 47.257 47.6138 47.4449 47.4241 47.4449C47.2344 47.6329 47.2344 47.8209 47.0447 47.8209V48.0089C46.0488 49.3717 45.4323 51.7685 45.2426 55.2932V55.6691C44.8632 60.2277 44.4364 64.7393 44.2467 69.0628C44.057 73.6214 44.057 78.133 44.057 82.4565V82.8325C44.057 87.955 44.2467 92.5135 44.4364 96.6491V98.435C44.6261 101.208 44.8158 103.37 45.2426 104.967V105.155C45.2426 105.531 45.4323 105.954 45.622 106.33C45.622 106.706 45.8117 107.129 46.0014 107.317C47.187 109.291 49.985 110.466 54.3479 110.889H54.5376C57.146 111.077 59.3274 111.265 61.3192 111.5C63.9276 111.5 66.1091 111.688 68.2905 111.876C72.6535 112.064 77.633 112.064 83.4187 112.064H110.498C115.098 112.064 118.844 111.876 121.832 111.265C122.211 111.077 122.638 111.077 123.018 111.077C124.393 110.701 125.389 110.278 125.816 109.902H126.005C126.385 109.526 127.001 108.539 127.191 107.317C127.807 105.531 128.187 103.182 128.376 100.409H128.187V96.6491H74.835V68.6399H157.827L158.206 77.898L158.253 78.086Z" fill="#3E3A39" fill-opacity="0.05"/>
<path d="M537.643 14.1724H550.163L551.159 16.1462L553.151 20.2818L602.709 123.437L609.68 138.052L611.861 142.799H576.009L575.013 140.825L573.021 136.69L565.244 120.1H537.596V87.1563H553.72L537.785 54.0245L537.596 54.2125V14.1724H537.643ZM530.482 14.1724H537.643V54.2125L521.519 87.1563H537.643V120.1H509.379L501.222 136.878L499.23 141.013L498.234 142.799H462.998L465.369 138.052L472.341 123.437L521.898 20.2818L523.89 16.1462L524.886 14.1724H530.482V14.1724Z" fill="#3E3A39" fill-opacity="0.05"/>
</g>
</svg>
